<?xml version="1.0" standalone="no"?>
<svg version="1.1" preserveAspectRatio="none" viewBox="0 0 24 24" class="ng-element" data-id="a5c268c1ca876aa798f6fce39be9fd20" style="fill: rgb(255, 255, 255); width: 31px; height: 31px; pointer-events: all;" xmlns="http://www.w3.org/2000/svg"><g><path xmlns:default="http://www.w3.org/2000/svg" id="comments" d="M17.34,10c-0.01-0.98-0.36-1.93-1-2.68c-0.71-0.86-1.63-1.53-2.67-1.94c-1.16-0.48-2.4-0.72-3.66-0.71  C8.75,4.66,7.5,4.9,6.33,5.38C5.29,5.79,4.37,6.46,3.66,7.32c-0.64,0.75-0.99,1.7-1,2.68c0,0.83,0.26,1.65,0.74,2.33  c0.52,0.76,1.2,1.39,2,1.84c-0.07,0.17-0.14,0.32-0.21,0.46C5.14,14.76,5.08,14.88,5.01,15l-0.23,0.3l-0.27,0.31l-0.24,0.26l0,0  v0.05v0.05v0.06v0.05c0,0.02,0,0.04,0,0.06c0,0.02,0,0.05,0,0.07c0,0.02,0,0.05,0,0.07c0.01,0.09,0.05,0.16,0.12,0.22  c0.06,0.05,0.13,0.08,0.21,0.08l0,0c0.3-0.04,0.6-0.1,0.9-0.17c1.04-0.26,2.02-0.71,2.89-1.33c0.6,0.11,1.22,0.17,1.83,0.17  c1.26,0.01,2.51-0.23,3.68-0.71c1.04-0.41,1.96-1.08,2.67-1.94c0.64-0.75,0.99-1.7,1-2.68l0,0L17.34,10z M21.34,12.67  c0-0.86-0.28-1.69-0.78-2.39c-0.55-0.77-1.28-1.4-2.12-1.85c0.44,1.4,0.28,2.93-0.43,4.21c-0.5,0.87-1.18,1.63-2,2.21  c-0.84,0.6-1.77,1.05-2.75,1.34c-1.04,0.32-2.13,0.47-3.22,0.47H9.12c1.46,0.92,3.16,1.39,4.89,1.34c0.61,0,1.23-0.06,1.83-0.17  c1.12,0.81,2.42,1.32,3.79,1.5c0.08,0.01,0.17-0.02,0.23-0.07C19.94,19.2,20,19.1,20.01,19l0,0c0,0,0,0,0-0.07v-0.06v-0.05v-0.06  v-0.05v-0.05l0,0l-0.24-0.26L19.28,18l-0.27-0.3c-0.1-0.13-0.19-0.26-0.26-0.4c-0.07-0.14-0.14-0.29-0.21-0.46  c0.8-0.46,1.48-1.08,2-1.84c0.48-0.69,0.74-1.5,0.74-2.34l0,0L21.34,12.67z" style="fill: rgb(255, 255, 255);"/></g></svg>