<?xml version="1.0" encoding="utf-8"?>
<!-- Generator: Adobe Illustrator 21.0.0, SVG Export Plug-In . SVG Version: 6.00 Build 0)  -->
<svg version="1.1" id="Layer_1" xmlns="http://www.w3.org/2000/svg" xmlns:xlink="http://www.w3.org/1999/xlink" x="0px" y="0px"
	 viewBox="0 0 20 20" style="enable-background:new 0 0 20 20;" xml:space="preserve">
<style type="text/css">
	.st0{fill:#0071BC;}
</style>
<path class="st0" d="M19.6,4.5l-1.8-1.8c-0.2-0.2-0.5-0.4-0.9-0.4c-0.3,0-0.6,0.1-0.9,0.4l-8.5,8.5L3.9,7.4C3.6,7.1,3.3,7,3,7
	C2.6,7,2.4,7.1,2.1,7.4L0.4,9.1C0.1,9.4,0,9.7,0,10c0,0.3,0.1,0.6,0.4,0.9L5,15.5l1.8,1.8c0.2,0.2,0.5,0.4,0.9,0.4
	c0.3,0,0.6-0.1,0.9-0.4l1.8-1.8l9.3-9.3C19.9,6,20,5.7,20,5.3C20,5,19.9,4.7,19.6,4.5L19.6,4.5z"/>
</svg>
