<svg data-name="Layer 1" xmlns="http://www.w3.org/2000/svg" width="60" height="60" viewBox="0 0 60 60"><title>Icon Checkmark</title><path d="M56 14.94A29.87 29.87 0 0 0 45.06 4 29.35 29.35 0 0 0 30 0a29.34 29.34 0 0 0-15.06 4A29.86 29.86 0 0 0 4 14.94 29.34 29.34 0 0 0 0 30a29.35 29.35 0 0 0 4 15.06A29.87 29.87 0 0 0 14.94 56 29.35 29.35 0 0 0 30 60a29.34 29.34 0 0 0 15.06-4A29.87 29.87 0 0 0 56 45.06 29.35 29.35 0 0 0 60 30a29.35 29.35 0 0 0-4-15.06zm-6.55 10.49L28.24 46.64a2.45 2.45 0 0 1-1.8.74 2.4 2.4 0 0 1-1.76-.74L10.55 32.5a2.39 2.39 0 0 1-.7-1.76 2.43 2.43 0 0 1 .7-1.8l3.55-3.52a2.45 2.45 0 0 1 3.52 0l8.83 8.83 15.94-15.9a2.45 2.45 0 0 1 3.52 0l3.55 3.52a2.43 2.43 0 0 1 .7 1.8 2.38 2.38 0 0 1-.71 1.76z" fill="#187d35"/></svg>