<svg data-name="Layer 1" xmlns="http://www.w3.org/2000/svg" width="60" height="60" viewBox="0 0 60 60"><title>Icon Error</title><path d="M56 14.94A29.87 29.87 0 0 0 45.06 4 29.35 29.35 0 0 0 30 0a29.35 29.35 0 0 0-15.06 4A29.86 29.86 0 0 0 4 14.94 29.34 29.34 0 0 0 0 30a29.35 29.35 0 0 0 4 15.06A29.88 29.88 0 0 0 14.94 56 29.35 29.35 0 0 0 30 60a29.34 29.34 0 0 0 15.06-4A29.87 29.87 0 0 0 56 45.06 29.35 29.35 0 0 0 60 30a29.35 29.35 0 0 0-4-15.06zM35 48.71a1.28 1.28 0 0 1-.35.92 1.14 1.14 0 0 1-.86.37h-7.5A1.34 1.34 0 0 1 25 48.71v-7.42A1.34 1.34 0 0 1 26.29 40h7.5a1.14 1.14 0 0 1 .86.37 1.29 1.29 0 0 1 .35.92zm-.08-13.44a1 1 0 0 1-.41.68 1.44 1.44 0 0 1-.92.29h-7.22a1.52 1.52 0 0 1-.94-.29.85.85 0 0 1-.39-.68L24.38 11a.77.77 0 0 1 .39-.7 1.46 1.46 0 0 1 .93-.3h8.6a1.45 1.45 0 0 1 .94.31.77.77 0 0 1 .39.7z" fill="#900"/></svg>