<svg data-name="Layer 1" xmlns="http://www.w3.org/2000/svg" width="60" height="60" viewBox="0 0 60 60"><title>Icon Help</title><path d="M30 60a30 30 0 1 1 30-30 30 30 0 0 1-30 30zm.78-50c-6.37 0-11.13 2.73-14.49 8.32A1.23 1.23 0 0 0 16.6 20l5.16 3.91a1.2 1.2 0 0 0 .74.23 1.24 1.24 0 0 0 1-.47A17.07 17.07 0 0 1 26.84 20a6.24 6.24 0 0 1 3.36-.94c2.5 0 4.8 1.6 4.8 3.32 0 2-1.05 3-3.44 4.14-2.77 1.29-6.56 4.53-6.56 8.32v1.41a1.23 1.23 0 0 0 1.25 1.25h7.5A1.23 1.23 0 0 0 35 36.25c0-.9 1.13-2.81 3-3.87 3-1.68 7-3.95 7-9.88C45 15.35 37.5 10 30.78 10zM35 41.25A1.23 1.23 0 0 0 33.75 40h-7.5A1.23 1.23 0 0 0 25 41.25v7.5A1.23 1.23 0 0 0 26.25 50h7.5A1.23 1.23 0 0 0 35 48.75z" fill="#224687"/></svg>